<svg enable-background="new 0 0 80.3 80.3" viewBox="0 0 80.3 80.3" xmlns="http://www.w3.org/2000/svg"><circle cx="40.2" cy="40.2" fill="#50646f" r="40.2"/><g fill="#81caff"><path d="m45.7 49.8 23-22c1.4-1.4 2.6-4.5 1.3-5.7-1.2-1.2-4.4 0-5.7 1.3l-22 23z"/><path d="m56.2 32.3c-.9-.3-18.3-5.9-18.3-5.9l-4.8 4 16.3 9.1z"/><path d="m45.6 33.3c-.8.8-2.3.8-3.2-.2-.9-.9-1-2.4-.2-3.2l3.7-3.7c.8-.8 2.3-.8 3.2.2.9.9 1 2.4.2 3.2z"/><path d="m59.9 36.1c.3.9 5.9 18.3 5.9 18.3l-4 4.8-9.1-16.3z"/><path d="m58.9 46.6c-.8.8-.8 2.3.2 3.2.9.9 2.4 1 3.2.2l3.7-3.7c.8-.8.8-2.3-.2-3.2-.9-.9-2.4-1-3.2-.2z"/><path d="m39.5 53.6c-.2.2-.6.2-.8 0-.2-.2-.3-.6 0-.8l6.8-6.8c.2-.2.6-.2.8 0 .2.2.3.6 0 .8z"/><path d="m46.2 45.6c-.4.1-9.1.7-9.1.7l-3.5 3.3 7.4 1.4z"/><path d="m46.3 46.3c-.1.4-.7 9.1-.7 9.1l-3.3 3.5-1.4-7.2z"/></g><path d="m37.5 52.6c-6.4 4.5-15.4 5.9-22.6 2.1-4.7-2.5-8.5-7.7-10.4-12.6 1.3 6.2 5.2 11.8 11.1 14.9 8.5 4.6 18.4 2.5 24-4.4-1.1-.3-1.1.2-2.1 0z" fill="#fff"/></svg>